<?xml version="1.0" encoding="UTF-8" standalone="no"?><!DOCTYPE svg PUBLIC "-//W3C//DTD SVG 1.1//EN" "http://www.w3.org/Graphics/SVG/1.1/DTD/svg11.dtd"><svg width="100%" height="100%" viewBox="0 0 448 512" version="1.1" xmlns="http://www.w3.org/2000/svg" xmlns:xlink="http://www.w3.org/1999/xlink" xml:space="preserve" xmlns:serif="http://www.serif.com/" style="fill-rule:evenodd;clip-rule:evenodd;stroke-linejoin:round;stroke-miterlimit:2;"><path d="M436,124l-424,0c-6.627,0 -12,-5.373 -12,-12l0,-32c0,-6.627 5.373,-12 12,-12l424,0c6.627,0 12,5.373 12,12l0,32c0,6.627 -5.373,12 -12,12Zm0,160l-424,0c-6.627,0 -12,-5.373 -12,-12l0,-32c0,-6.627 5.373,-12 12,-12l424,0c6.627,0 12,5.373 12,12l0,32c0,6.627 -5.373,12 -12,12Zm0,160l-424,0c-6.627,0 -12,-5.373 -12,-12l0,-32c0,-6.627 5.373,-12 12,-12l424,0c6.627,0 12,5.373 12,12l0,32c0,6.627 -5.373,12 -12,12Z" style="fill:#fff;fill-rule:nonzero;"/></svg>